<svg width="230" height="71" viewBox="0 0 230 71" fill="none" xmlns="http://www.w3.org/2000/svg">
<circle cx="30.326" cy="40.2155" r="30.2994" fill="url(#paint0_linear_484_1031)"/>
<rect x="24.353" y="17.7855" width="32.914" height="32.914" transform="rotate(30 24.353 17.7855)" fill="url(#paint1_linear_484_1031)"/>
<circle cx="30.4372" cy="38.8383" r="10.1916" fill="#2563EB"/>
<path d="M56.3559 60.5975C46.4482 32.438 18.0786 22.4221 5.13228 20.9341L1.5415 26.6422C31.5575 33.1405 44.2889 56.6702 46.9026 67.6228L56.3559 60.5975Z" fill="white"/>
<path d="M1.88688 16.8543L3.69712 17.7076L5.06801 16.2496L4.8159 18.2349L6.62614 19.0882L4.66009 19.4619L4.40798 21.4472L3.44501 19.6929L1.47896 20.0666L2.84985 18.6086L1.88688 16.8543Z" fill="#2563EB"/>
<path d="M10.099 8.44473L11.6106 9.75631L13.3251 8.72403L12.5448 10.5669L14.0563 11.8785L12.0625 11.7059L11.2823 13.5487L10.8303 11.5992L8.83651 11.4266L10.551 10.3943L10.099 8.44473Z" fill="#2563EB"/>
<path d="M21.2371 3.84318L22.3298 5.5198L24.262 4.99869L23.0051 6.55601L24.0978 8.23263L22.2283 7.51848L20.9714 9.07579L21.0729 7.07711L19.2034 6.36297L21.1356 5.84186L21.2371 3.84318Z" fill="#2563EB"/>
<path d="M34.8877 1.00063L35.0803 3.94619L37.9413 4.67319L35.1994 5.76664L35.3921 8.7122L33.5048 6.44243L30.763 7.53589L32.3385 5.03964L30.4513 2.76988L33.3122 3.49688L34.8877 1.00063Z" fill="#2563EB"/>
<path d="M47.5898 7.12598L47.0904 9.06393L48.7792 10.1377L46.7817 10.2616L46.2824 12.1996L45.5473 10.3382L43.5499 10.4621L45.093 9.18783L44.3579 7.32647L46.0467 8.40027L47.5898 7.12598Z" fill="#2563EB"/>
<path d="M55.9409 14.0343L55.2498 15.9124L56.8224 17.1501L54.8227 17.0732L54.1315 18.9513L53.5867 17.0257L51.587 16.9487L53.25 15.8355L52.7052 13.9099L54.2779 15.1475L55.9409 14.0343Z" fill="#2563EB"/>
<path d="M69.9089 25.6887V29.6H76.2167V33.236H69.9089V37.4779H77.0431V41.2515H65.1988V21.915H77.0431V25.6887H69.9089ZM86.3537 41.4719C85.0132 41.4719 83.8195 41.2423 82.7728 40.7833C81.7261 40.3242 80.8998 39.6998 80.2938 38.9102C79.6878 38.1022 79.3481 37.2024 79.2746 36.2108H83.9297C83.9848 36.7433 84.2327 37.1749 84.6734 37.5054C85.1142 37.836 85.6559 38.0012 86.2986 38.0012C86.8862 38.0012 87.3361 37.891 87.6483 37.6707C87.9788 37.432 88.1441 37.129 88.1441 36.7617C88.1441 36.321 87.9146 35.9996 87.4555 35.7976C86.9964 35.5773 86.2527 35.3386 85.2243 35.0815C84.1225 34.8244 83.2044 34.5581 82.4698 34.2827C81.7353 33.9889 81.1018 33.539 80.5692 32.933C80.0367 32.3086 79.7704 31.4731 79.7704 30.4264C79.7704 29.5449 80.0092 28.7461 80.4866 28.03C80.9824 27.2954 81.6986 26.717 82.6351 26.2946C83.59 25.8723 84.7193 25.6611 86.0231 25.6611C87.9513 25.6611 89.4662 26.1386 90.568 27.0934C91.6882 28.0483 92.3309 29.3154 92.4962 30.8946H88.1441C88.0706 30.3621 87.8319 29.9397 87.4279 29.6276C87.0423 29.3154 86.5281 29.1593 85.8854 29.1593C85.3345 29.1593 84.9122 29.2695 84.6183 29.4898C84.3245 29.6918 84.1776 29.9765 84.1776 30.3437C84.1776 30.7845 84.4072 31.115 84.8662 31.3354C85.3437 31.5557 86.0782 31.7761 87.0698 31.9964C88.2084 32.2902 89.1357 32.5841 89.8519 32.8779C90.568 33.1533 91.1924 33.6124 91.7249 34.2551C92.2758 34.8795 92.5605 35.7242 92.5788 36.7893C92.5788 37.6891 92.3217 38.497 91.8076 39.2132C91.3118 39.911 90.5864 40.4619 89.6315 40.8659C88.695 41.2699 87.6024 41.4719 86.3537 41.4719ZM104.027 37.2575V41.2515H101.631C99.9228 41.2515 98.5914 40.8384 97.6365 40.012C96.6817 39.1673 96.2042 37.7992 96.2042 35.9078V29.7928H94.3312V25.8815H96.2042V22.1354H100.914V25.8815H103.999V29.7928H100.914V35.9629C100.914 36.422 101.025 36.7525 101.245 36.9545C101.465 37.1565 101.833 37.2575 102.347 37.2575H104.027ZM113.647 41.4719C112.141 41.4719 110.782 41.1505 109.57 40.5078C108.377 39.8651 107.431 38.9469 106.733 37.7533C106.054 36.5597 105.714 35.1641 105.714 33.5665C105.714 31.9873 106.063 30.6008 106.761 29.4072C107.459 28.1952 108.413 27.2679 109.625 26.6252C110.837 25.9825 112.196 25.6611 113.702 25.6611C115.208 25.6611 116.567 25.9825 117.779 26.6252C118.991 27.2679 119.946 28.1952 120.643 29.4072C121.341 30.6008 121.69 31.9873 121.69 33.5665C121.69 35.1457 121.332 36.5413 120.616 37.7533C119.918 38.9469 118.954 39.8651 117.724 40.5078C116.512 41.1505 115.153 41.4719 113.647 41.4719ZM113.647 37.3952C114.547 37.3952 115.309 37.0647 115.933 36.4036C116.576 35.7425 116.897 34.7968 116.897 33.5665C116.897 32.3362 116.585 31.3904 115.961 30.7294C115.355 30.0683 114.602 29.7378 113.702 29.7378C112.784 29.7378 112.022 30.0683 111.416 30.7294C110.81 31.3721 110.507 32.3178 110.507 33.5665C110.507 34.7968 110.801 35.7425 111.388 36.4036C111.994 37.0647 112.747 37.3952 113.647 37.3952ZM139.366 25.8815V41.2515H134.656V39.1581C134.179 39.8376 133.527 40.3885 132.7 40.8108C131.892 41.2148 130.993 41.4168 130.001 41.4168C128.826 41.4168 127.788 41.1597 126.888 40.6455C125.989 40.113 125.291 39.3509 124.795 38.3593C124.299 37.3677 124.051 36.2016 124.051 34.8611V25.8815H128.734V34.2276C128.734 35.2559 129 36.0547 129.533 36.624C130.065 37.1932 130.781 37.4779 131.681 37.4779C132.599 37.4779 133.325 37.1932 133.857 36.624C134.39 36.0547 134.656 35.2559 134.656 34.2276V25.8815H139.366ZM157.952 25.7162C159.752 25.7162 161.184 26.3038 162.249 27.4791C163.332 28.636 163.874 30.2336 163.874 32.2719V41.2515H159.191V32.9054C159.191 31.8771 158.925 31.0783 158.393 30.509C157.86 29.9397 157.144 29.6551 156.244 29.6551C155.344 29.6551 154.628 29.9397 154.096 30.509C153.563 31.0783 153.297 31.8771 153.297 32.9054V41.2515H148.587V25.8815H153.297V27.9198C153.774 27.2403 154.417 26.7078 155.225 26.3222C156.033 25.9182 156.942 25.7162 157.952 25.7162ZM166.211 33.539C166.211 31.9597 166.504 30.5733 167.092 29.3797C167.698 28.1861 168.515 27.2679 169.544 26.6252C170.572 25.9825 171.72 25.6611 172.987 25.6611C174.07 25.6611 175.016 25.8815 175.824 26.3222C176.65 26.7629 177.284 27.3413 177.724 28.0575V25.8815H182.435V41.2515H177.724V39.0755C177.265 39.7916 176.623 40.3701 175.796 40.8108C174.988 41.2515 174.043 41.4719 172.959 41.4719C171.71 41.4719 170.572 41.1505 169.544 40.5078C168.515 39.8467 167.698 38.9194 167.092 37.7258C166.504 36.5138 166.211 35.1182 166.211 33.539ZM177.724 33.5665C177.724 32.3912 177.394 31.4639 176.733 30.7845C176.09 30.105 175.3 29.7653 174.364 29.7653C173.427 29.7653 172.629 30.105 171.968 30.7845C171.325 31.4455 171.003 32.3637 171.003 33.539C171.003 34.7142 171.325 35.6507 171.968 36.3485C172.629 37.028 173.427 37.3677 174.364 37.3677C175.3 37.3677 176.09 37.028 176.733 36.3485C177.394 35.6691 177.724 34.7417 177.724 33.5665Z" fill="#10B981"/>
<path d="M137.78 42.8491V46.6227H132.656V62.1856H127.946V46.6227H122.823V42.8491H137.78ZM147.14 62.406C145.634 62.406 144.275 62.0846 143.063 61.4419C141.87 60.7992 140.924 59.881 140.226 58.6874C139.547 57.4938 139.207 56.0982 139.207 54.5006C139.207 52.9213 139.556 51.5349 140.254 50.3413C140.951 49.1293 141.906 48.202 143.118 47.5593C144.33 46.9165 145.689 46.5952 147.195 46.5952C148.701 46.5952 150.06 46.9165 151.272 47.5593C152.484 48.202 153.439 49.1293 154.136 50.3413C154.834 51.5349 155.183 52.9213 155.183 54.5006C155.183 56.0798 154.825 57.4754 154.109 58.6874C153.411 59.881 152.447 60.7992 151.217 61.4419C150.005 62.0846 148.646 62.406 147.14 62.406ZM147.14 58.3293C148.04 58.3293 148.802 57.9988 149.426 57.3377C150.069 56.6766 150.39 55.7309 150.39 54.5006C150.39 53.2702 150.078 52.3245 149.454 51.6635C148.848 51.0024 148.095 50.6718 147.195 50.6718C146.277 50.6718 145.515 51.0024 144.909 51.6635C144.303 52.3062 144 53.2519 144 54.5006C144 55.7309 144.294 56.6766 144.881 57.3377C145.487 57.9988 146.24 58.3293 147.14 58.3293ZM162.392 49.3772C162.943 48.5325 163.632 47.8714 164.458 47.394C165.284 46.8982 166.202 46.6503 167.212 46.6503V51.6359H165.918C164.743 51.6359 163.861 51.893 163.273 52.4072C162.686 52.903 162.392 53.7844 162.392 55.0515V62.1856H157.682V46.8155H162.392V49.3772ZM168.527 54.5006C168.527 52.903 168.849 51.5074 169.491 50.3138C170.152 49.1201 171.061 48.202 172.218 47.5593C173.394 46.9165 174.734 46.5952 176.24 46.5952C178.168 46.5952 179.775 47.1002 181.06 48.1102C182.364 49.1201 183.218 50.5433 183.622 52.3796H178.609C178.186 51.2044 177.369 50.6167 176.157 50.6167C175.294 50.6167 174.605 50.9565 174.091 51.6359C173.577 52.297 173.32 53.2519 173.32 54.5006C173.32 55.7493 173.577 56.7134 174.091 57.3928C174.605 58.0539 175.294 58.3844 176.157 58.3844C177.369 58.3844 178.186 57.7968 178.609 56.6215H183.622C183.218 58.4211 182.364 59.8351 181.06 60.8635C179.756 61.8918 178.15 62.406 176.24 62.406C174.734 62.406 173.394 62.0846 172.218 61.4419C171.061 60.7992 170.152 59.881 169.491 58.6874C168.849 57.4938 168.527 56.0982 168.527 54.5006ZM188.51 45.2179C187.684 45.2179 187.004 44.9792 186.472 44.5018C185.958 44.006 185.701 43.4 185.701 42.6838C185.701 41.9493 185.958 41.3433 186.472 40.8658C187.004 40.37 187.684 40.1221 188.51 40.1221C189.318 40.1221 189.979 40.37 190.493 40.8658C191.026 41.3433 191.292 41.9493 191.292 42.6838C191.292 43.4 191.026 44.006 190.493 44.5018C189.979 44.9792 189.318 45.2179 188.51 45.2179ZM190.852 46.8155V62.1856H186.141V46.8155H190.852ZM193.328 54.473C193.328 52.8938 193.622 51.5074 194.21 50.3138C194.816 49.1201 195.633 48.202 196.661 47.5593C197.69 46.9165 198.837 46.5952 200.104 46.5952C201.114 46.5952 202.033 46.8064 202.859 47.2287C203.704 47.6511 204.365 48.2203 204.842 48.9365V41.8024H209.552V62.1856H204.842V59.982C204.401 60.7165 203.768 61.3042 202.942 61.7449C202.134 62.1856 201.188 62.406 200.104 62.406C198.837 62.406 197.69 62.0846 196.661 61.4419C195.633 60.7808 194.816 59.8535 194.21 58.6599C193.622 57.4479 193.328 56.0523 193.328 54.473ZM204.842 54.5006C204.842 53.3253 204.512 52.398 203.851 51.7185C203.208 51.0391 202.418 50.6994 201.482 50.6994C200.545 50.6994 199.746 51.0391 199.085 51.7185C198.443 52.3796 198.121 53.2978 198.121 54.473C198.121 55.6483 198.443 56.5848 199.085 57.2826C199.746 57.9621 200.545 58.3018 201.482 58.3018C202.418 58.3018 203.208 57.9621 203.851 57.2826C204.512 56.6032 204.842 55.6758 204.842 54.5006ZM212.023 54.473C212.023 52.8938 212.317 51.5074 212.905 50.3138C213.511 49.1201 214.328 48.202 215.356 47.5593C216.385 46.9165 217.532 46.5952 218.799 46.5952C219.883 46.5952 220.829 46.8155 221.637 47.2563C222.463 47.697 223.097 48.2754 223.537 48.9916V46.8155H228.247V62.1856H223.537V60.0096C223.078 60.7257 222.435 61.3042 221.609 61.7449C220.801 62.1856 219.855 62.406 218.772 62.406C217.523 62.406 216.385 62.0846 215.356 61.4419C214.328 60.7808 213.511 59.8535 212.905 58.6599C212.317 57.4479 212.023 56.0523 212.023 54.473ZM223.537 54.5006C223.537 53.3253 223.207 52.398 222.546 51.7185C221.903 51.0391 221.113 50.6994 220.177 50.6994C219.24 50.6994 218.441 51.0391 217.78 51.7185C217.138 52.3796 216.816 53.2978 216.816 54.473C216.816 55.6483 217.138 56.5848 217.78 57.2826C218.441 57.9621 219.24 58.3018 220.177 58.3018C221.113 58.3018 221.903 57.9621 222.546 57.2826C223.207 56.6032 223.537 55.6758 223.537 54.5006Z" fill="#FBBF24"/>
<defs>
<linearGradient id="paint0_linear_484_1031" x1="4.98469" y1="68.4491" x2="62.0027" y2="11.1557" gradientUnits="userSpaceOnUse">
<stop stop-color="#34D399"/>
<stop offset="1" stop-color="#059669"/>
</linearGradient>
<linearGradient id="paint1_linear_484_1031" x1="48.2815" y1="21.4851" x2="2.32848" y2="75.8048" gradientUnits="userSpaceOnUse">
<stop stop-color="#FBBF24"/>
<stop offset="1" stop-color="#F59E0B"/>
</linearGradient>
</defs>
</svg>
